<svg xmlns="http://www.w3.org/2000/svg" width="636" height="235" viewBox="0 0 636 235" xmlns:xlink="http://www.w3.org/1999/xlink">
  <defs>
    <polygon id="a" points=".261 .988 58.586 .988 58.586 59.291 .261 59.291"/>
    <polygon id="c" points="0 180 566.102 180 566.102 .988 0 .988"/>
  </defs>
  <g fill="none" fill-rule="evenodd" transform="translate(38 27)">
    <polygon fill="#221F20" points="132.038 178.088 142.026 178.088 142.026 92.582 132.038 92.582"/>
    <g transform="translate(0 .012)">
      <path fill="#221F20" d="M434.7118 101.9216L434.7118 141.1906C438.3838 140.9476 445.5308 139.8646 450.2308 135.3476 453.4388 132.2696 455.0058 128.0676 455.0058 122.5296 455.0058 113.9146 451.4748 108.0596 444.2108 104.5706 440.6828 102.9086 437.0538 102.2336 434.7118 101.9216zM454.6328 160.9946C461.1098 167.8456 468.4938 168.4356 468.8018 168.4526L468.2548 178.5286C467.7998 178.5046 456.6778 177.8296 447.2878 167.9416 440.3938 160.6576 438.2168 154.3186 437.5318 150.8626 436.4748 151.0046 435.5268 151.0586 434.7118 151.1126L434.7118 178.0756 424.4158 178.0756 424.4158 91.8226C451.3388 91.8226 464.9108 106.5906 464.9108 122.5296 464.9108 130.8186 462.2638 137.5556 457.0378 142.5506 454.1078 145.3356 450.6988 147.2246 447.3548 148.5086 447.5698 149.9296 448.6888 154.7416 454.6328 160.9946zM91.1644 101.9216C93.5214 102.2336 97.1224 102.9086 100.6564 104.5706 107.9224 108.0596 111.4464 113.9146 111.4464 122.5296 111.4464 128.0676 109.8904 132.2696 106.6854 135.3476 101.9844 139.8646 94.8464 140.9476 91.1644 141.1906L91.1644 101.9216zM111.0684 160.9946C105.1374 154.7416 104.0234 149.9296 103.8024 148.5086 107.1494 147.2246 110.5544 145.3356 113.4854 142.5506 118.7064 137.5556 121.3614 130.8186 121.3614 122.5296 121.3614 106.5906 107.7944 91.8226 80.8654 91.8226L80.8654 178.0756 91.1644 178.0756 91.1644 151.1126C91.9884 151.0586 92.9194 151.0046 93.9774 150.8626 94.6734 154.3186 96.8544 160.6576 103.7444 167.9416 113.1214 177.8296 124.2404 178.5046 124.7094 178.5286L125.2474 168.4526C124.9354 168.4356 117.5634 167.8456 111.0684 160.9946L111.0684 160.9946z"/>
      <g transform="translate(356)">
        <mask id="b" fill="white">
          <use xlink:href="#a"/>
        </mask>
        <path fill="#221F20" d="M58.5858,30.1516 C58.5858,46.2476 45.5268,59.2906 29.4198,59.2906 C13.3208,59.2906 0.2608,46.2476 0.2608,30.1516 C0.2608,14.0336 13.3208,0.9876 29.4198,0.9876 C45.5268,0.9876 58.5858,14.0336 58.5858,30.1516" mask="url(#b)"/>
      </g>
      <path fill="#221F20" d="M285.5633 63.9167C265.6873 63.9167 248.1153 73.9587 237.6463 89.2287L250.4213 89.2287C259.2023 79.7867 271.7133 73.9057 285.5633 73.9057 312.0573 73.9057 333.6083 95.4487 333.6083 121.9407 333.6083 148.4487 312.0573 170.0037 285.5633 170.0037 259.0713 170.0037 237.5223 148.4487 237.5223 121.9407 237.5223 117.0627 238.2553 112.3327 239.6203 107.8937L229.2533 107.8937C228.1133 112.4137 227.5233 117.1037 227.5233 121.9407 227.5233 153.9487 253.5623 179.9997 285.5633 179.9997 317.5633 179.9997 343.6023 153.9487 343.6023 121.9407 343.6023 89.9437 317.5633 63.9167 285.5633 63.9167M414.5858 163.0163C408.8968 166.9163 402.0308 169.1683 394.6468 169.1683 375.0828 169.1683 359.1608 153.2363 359.1608 133.6603 359.1608 114.0933 375.0828 98.1783 394.6468 98.1783 402.0308 98.1783 408.8968 100.4403 414.5858 104.3143L414.5858 92.7943C408.5688 89.8393 401.8048 88.1813 394.6468 88.1813 369.5728 88.1813 349.1598 108.5853 349.1598 133.6603 349.1598 158.7623 369.5728 179.1683 394.6468 179.1683 401.8048 179.1683 408.5688 177.5043 414.5858 174.5543L414.5858 163.0163zM170.0692 93.2067C161.3042 93.2067 156.0162 97.1887 153.1122 100.5207 149.6342 104.5297 147.6672 109.9607 147.6672 115.4487 147.6672 130.5367 156.5722 140.2887 163.7252 148.1157 168.6582 153.5387 172.9522 158.2047 172.9522 162.9517 172.9522 170.7257 167.6842 175.9477 165.6642 178.0357L165.7152 178.0757 178.0862 178.0757C180.5362 174.0897 182.9362 168.7047 182.9362 162.9517 182.9362 154.3187 176.9192 147.7277 171.1022 141.3707 164.4862 134.1367 157.6522 126.6787 157.6522 115.4487 157.6522 105.7577 165.7752 103.2007 170.0692 103.2007 178.3122 103.2007 185.0022 110.6707 185.1802 110.8747L185.1802 98.0027C181.2592 95.4867 176.0452 93.2067 170.0692 93.2067"/>
      <polygon fill="#221F20" points="297.173 93.137 189.21 93.137 189.21 103.034 207.139 103.034 207.139 178.075 217.047 178.075 217.047 103.034 297.173 103.034"/>
      <polygon fill="#221F20" points="566.101 93.137 512.925 93.137 512.925 103.034 534.811 103.034 534.811 178.075 544.708 178.075 544.708 103.034 566.101 103.034"/>
      <path fill="#221F20" d="M485.4442,144.86 L485.4442,110.766 C489.5112,114.003 494.8612,119.183 500.0962,127.001 C504.2642,133.207 507.3252,139.262 509.5992,144.86 L485.4442,144.86 Z M508.4052,121.424 C496.0722,103.035 482.9842,97.252 482.4292,97.01 L475.4462,94.024 L475.4462,178.076 L485.4442,178.076 L485.4442,154.757 L513.0182,154.757 C513.8022,157.53 514.3862,160.058 514.8042,162.269 C516.5702,171.53 515.9632,177.809 515.9632,177.867 L526.1202,177.867 C526.1202,176.575 528.0782,150.783 508.4052,121.424 L508.4052,121.424 Z"/>
      <mask id="d" fill="white">
        <use xlink:href="#c"/>
      </mask>
      <polygon fill="#221F20" points="356.261 79.593 414.586 79.593 414.586 69.687 356.261 69.687" mask="url(#d)"/>
      <path fill="#221F20" d="M20.8299,136.4294 C22.8519,131.3804 25.2429,126.2624 28.0439,121.3084 C38.7419,102.4404 51.3019,90.9834 59.0569,85.1254 L59.0569,136.4294 L20.8299,136.4294 Z M61.7859,71.3084 C60.8159,71.8304 37.6489,83.9854 19.3049,116.3604 C4.7849,142.0054 0.8209,170.7224 -0.0001,178.0754 L10.1269,178.0754 C10.7689,172.9094 12.6529,160.4994 17.2369,146.3254 L59.0569,146.3254 L59.0569,178.0754 L69.0979,178.0754 L69.0979,67.5464 L61.7859,71.3084 Z" mask="url(#d)"/>
      <polygon fill="#221F20" points="548.944 178.08 548.944 174.258 547.58 174.258 547.58 173.479 551.235 173.479 551.235 174.258 549.874 174.258 549.874 178.08" mask="url(#d)"/>
      <polygon fill="#221F20" points="551.822 178.08 551.822 173.479 553.213 173.479 554.047 176.617 554.873 173.479 556.265 173.479 556.265 178.08 555.403 178.08 555.403 174.459 554.49 178.08 553.595 178.08 552.685 174.459 552.685 178.08" mask="url(#d)"/>
    </g>
  </g>
</svg>
