<?xml version="1.0" encoding="utf-8"?>
<svg version="1.1" id="Layer_1" xmlns="http://www.w3.org/2000/svg" xmlns:xlink="http://www.w3.org/1999/xlink" x="0px" y="0px"
	 viewBox="0 0 386.5 65.3" xml:space="preserve">
<style type="text/css">
	.st0{fill:#FFFFFF;}
</style>
<g>
	<path class="st0" d="M297.2,48.8c0-4.6,2.1-9,5.6-13.8l13-17.8h6.4l-12.3,16.9c1.5-1,3.6-1.6,5.8-1.6c9.1,0,16.2,6.8,16.2,16.2
		c0,9.7-7.6,16.4-17.3,16.4C304.9,65.1,297.2,58.6,297.2,48.8z M325.8,48.8c0-6.7-4.4-11.4-11.2-11.4c-7.1,0-11.4,5.2-11.4,11.4
		c0,6.5,4.5,11.2,11.4,11.2C321.3,60,325.8,55.3,325.8,48.8z"/>
	<path class="st0" d="M365.3,37h-7V11.3h7V37z M368.4,17.3v5.4c7.2,2.5,11.9,9.3,11.9,18c0,11.1-7.8,19.2-18.5,19.2
		c-10.6,0-18.4-8.1-18.4-19.2c0-8.8,4.8-15.5,11.9-18v-5.4c-10.3,2.7-18.1,11.8-18.1,23.4c0,13.9,11.2,24.4,24.6,24.4
		c13.4,0,24.7-10.5,24.7-24.4C386.5,29.1,378.7,20,368.4,17.3z"/>
	<path class="st0" d="M0,33.3c0-18.5,14.3-32,32.1-32c17.8,0,32.1,13.5,32.1,32c0,18.5-14.3,32-32.1,32C14.3,65.3,0,51.8,0,33.3z
		 M57.9,33.3C57.9,18.1,47,6.7,32.1,6.7C17.2,6.7,6.3,18.1,6.3,33.3c0,15.2,10.9,26.6,25.8,26.6C47,59.9,57.9,48.4,57.9,33.3z"/>
	<path class="st0" d="M93.3,0l-2.8,6.6c3.9,9.8,16.7,41.7,16.7,41.7H73.3l-6.7,16.2h6l4.4-10.9h32.3l4.3,10.9h6.2L93.3,0z"/>
	<path class="st0" d="M129.1,50c3.3,6.3,9,9.8,16.4,9.8c8.6,0,13.6-4.2,13.6-10.8c0-6.9-4.2-10-11.8-13.5l-5.1-2.4
		c-9-4.2-14.4-8.3-14.4-17c0-8.9,6.9-14.9,16.1-14.9c7.8,0,13.2,2.9,17.1,9.2l-4.6,2.9c-2.9-4.7-6.7-6.9-12.4-6.9
		c-6.2,0-10.3,4-10.3,9.5c0,6,3.4,8.2,11,11.8l5.1,2.4c10,4.8,15.3,9.4,15.3,18.8c0,10.3-7.8,16.4-19.5,16.4
		c-10.2,0-17.5-5-21.5-12.6L129.1,50z"/>
	<path class="st0" d="M178,2h6.1v62.5H178V2z"/>
	<path class="st0" d="M200.2,50c3.3,6.3,9,9.8,16.4,9.8c8.6,0,13.6-4.2,13.6-10.8c0-6.9-4.2-10-11.8-13.5l-5.1-2.4
		c-9-4.2-14.4-8.3-14.4-17c0-8.9,6.9-14.9,16.1-14.9c7.8,0,13.2,2.9,17.1,9.2l-4.6,2.9c-2.8-4.7-6.7-6.9-12.4-6.9
		c-6.2,0-10.3,4-10.3,9.5c0,6,3.4,8.2,11,11.8l5.1,2.4c10,4.8,15.3,9.4,15.3,18.8c0,10.3-7.8,16.4-19.5,16.4
		c-10.2,0-17.5-5-21.5-12.6L200.2,50z"/>
	<path class="st0" d="M255.2,54.3l5-2.5c2.5,5.2,6.8,8.4,12.8,8.4c6.9,0,11.6-4.3,11.6-11.5c0-7.1-4.9-11-12-11c-3,0-5.2,0.6-7,1.1
		l-0.5-0.7l13.8-15.7h-20.1v-5h30.5l-13.8,16c8.5,0.3,15.2,6.2,15.2,15.5c0,9.7-6.8,16.5-17.7,16.5
		C264.3,65.3,257.8,60.2,255.2,54.3z"/>
	<g>
		<path class="st0" d="M382.6,17v0.4h-1V20h-0.4v-2.7h-1V17H382.6z"/>
		<path class="st0" d="M383.1,17h0.6l0.9,2.6l0.9-2.6h0.6v3h-0.4v-1.8c0-0.1,0-0.2,0-0.3c0-0.1,0-0.3,0-0.5l-0.9,2.5h-0.4l-0.9-2.5
			v0.1c0,0.1,0,0.2,0,0.3c0,0.2,0,0.3,0,0.3V20h-0.4V17z"/>
	</g>
</g>
</svg>
